<svg xmlns="http://www.w3.org/2000/svg" xmlns:xlink="http://www.w3.org/1999/xlink" width="131" height="25" viewBox="0 0 131 25">
  <defs>
    <polygon id="nordicbet-a" points="130.682 12.5 130.682 0 0 0 0 25 130.682 25"/>
  </defs>
  <g fill="none" fill-rule="evenodd">
    <mask id="nordicbet-b" fill="#fff">
      <use xlink:href="#nordicbet-a"/>
    </mask>
    <path fill="#FFF" fill-rule="nonzero" d="M86.9844293,6.89730744 C86.9844293,8.05294298 86.0375437,8.99068471 84.8680568,8.99068471 C83.6974625,8.99068471 82.7505768,8.05294298 82.7505768,6.89730744 C82.7505768,5.74167191 83.6974625,4.80393015 84.8680568,4.80393015 C86.0375437,4.80393015 86.9844293,5.74167191 86.9844293,6.89730744 Z M128.058225,6.86536491 L128.058225,10.0196909 L130.681818,10.0196909 L130.681818,12.7005829 L128.058225,12.7005829 L128.058225,16.878211 C128.058225,18.2802604 128.409292,18.9225337 129.497935,18.9225337 C130.010692,18.9225337 130.229971,18.9019991 130.581039,18.815298 L130.609833,21.5794687 C130.136943,21.7483078 129.259829,21.8897677 128.234313,21.8897677 C127.050429,21.8897677 126.062566,21.4813595 125.473393,20.8790144 C124.794515,20.1899681 124.461167,19.0833872 124.461167,17.4280791 L124.461167,12.7005829 L122.904066,12.7005829 L122.904066,10.0196909 L124.461167,10.0196909 L124.461167,7.84417565 L128.058225,6.86536491 Z M114.82176,14.490506 C114.92254,13.5379338 115.541615,12.1529964 117.075459,12.1529964 C118.725587,12.1529964 119.115416,13.6291982 119.109879,14.490506 L114.82176,14.490506 Z M122.395738,17.0048403 C122.459971,16.713935 122.527527,16.1766159 122.527527,15.5446099 C122.527527,12.6560914 121.081173,9.73563047 117.273696,9.73563047 C113.201533,9.73563047 111.344309,13.0086002 111.344309,15.9518773 C111.344309,19.576215 113.632339,21.8669515 117.619226,21.8669515 C119.189616,21.8669515 120.65812,21.6251009 121.881873,21.1334139 L121.386834,18.6726974 C120.396758,19.0012492 119.383424,19.1632436 118.154133,19.1632436 C116.455276,19.1632436 114.963516,18.4593668 114.852769,16.9820242 L122.395738,17.0048403 Z M102.146782,8.19668442 C102.445799,8.13622175 102.895431,8.08602633 103.692808,8.08602633 C105.337399,8.08602633 106.261028,8.72487716 106.261028,9.92956733 C106.261028,11.1125822 105.255447,11.9020193 103.320699,11.9020193 L102.146782,11.9020193 L102.146782,8.19668442 Z M102.146782,14.4996324 L103.389362,14.4996324 C105.20561,14.5019141 106.648642,15.1373424 106.648642,16.7299063 C106.648642,18.4034674 105.196751,19.0366141 103.5433,19.0366141 C102.928655,19.0366141 102.497849,19.0309102 102.146782,18.9715883 L102.146782,14.4996324 Z M98.4965658,21.4939083 C99.3183072,21.612552 100.652807,21.730055 102.46241,21.730055 C105.692896,21.730055 107.648686,21.2155518 108.835892,20.2755285 C109.841474,19.4849506 110.524782,18.3395823 110.524782,16.8736478 C110.524782,14.8304659 109.157058,13.4341205 107.305371,12.9538415 L107.305371,12.8922381 C109.130479,12.2225855 109.961081,10.8958292 109.961081,9.49149815 C109.961081,8.01985963 109.159274,6.92696837 108.02301,6.33146813 C106.838019,5.65382992 105.464758,5.43935856 103.232101,5.43935856 C101.394811,5.43935856 99.458956,5.59793047 98.4965658,5.7838817 L98.4965658,21.4939083 Z M97.100048,21.2748737 C96.4399959,21.5749054 95.2151358,21.8121929 93.8296928,21.8121929 C90.0266458,21.8121929 87.6068263,19.5157523 87.6068263,15.8640353 C87.6068263,12.4701402 89.9557677,9.68999822 94.3324838,9.68999822 C95.2948741,9.68999822 96.3513992,9.86111905 97.1177675,10.1463203 L96.5474212,12.8466058 C96.1077561,12.6538098 95.4687464,12.4804075 94.5107863,12.4804075 C92.5904351,12.4804075 91.3556075,13.8254166 91.3700051,15.7180123 C91.3700051,17.843332 92.814144,18.967025 94.5716968,18.967025 C95.4388448,18.967025 96.1077561,18.8175796 96.668135,18.5917002 L97.100048,21.2748737 Z M82.8801507,21.5623566 L86.5635913,21.5623566 L86.5635913,9.94097539 L82.8801507,9.94097539 L82.8801507,21.5623566 Z M77.5011756,16.3899465 C77.5011756,16.6785701 77.4856711,16.9580674 77.4258677,17.2067629 C77.206589,18.2175162 76.360483,18.9236744 75.3283222,18.9236744 C73.8188425,18.9236744 72.8475926,17.7007315 72.8475926,15.7522364 C72.8475926,13.9326523 73.6881612,12.471281 75.353794,12.471281 C76.4579402,12.471281 77.2497803,13.2629997 77.4557694,14.22698 C77.4956383,14.432325 77.5011756,14.6764572 77.5011756,14.8772389 L77.5011756,16.3899465 Z M77.5011756,4.70924332 L77.5011756,10.9859528 L77.454662,10.9859528 C76.9286143,10.1851076 75.8178233,9.67973098 74.3714693,9.67973098 C71.5751111,9.67973098 69.0954889,11.9533556 69.1132084,15.8560497 C69.1132084,19.4701201 71.3580472,21.8236009 74.1300412,21.8236009 C75.6384134,21.8236009 77.0615106,21.1699197 77.8024071,19.8659794 L77.8533506,19.8659794 L78.0083963,21.5623566 L81.2776436,21.5623566 C81.2267,20.7854683 81.1812939,19.4085166 81.1812939,18.084042 L81.1812939,4.70924332 L77.5011756,4.70924332 Z M61.5624875,13.7752212 C61.5624875,12.0651544 61.5303709,10.9414614 61.4661376,9.94097539 L64.6257456,9.94097539 L64.7608568,12.0902521 L64.8505617,12.0902521 C65.4541321,10.3893117 66.8871965,9.67973098 68.0201369,9.67973098 C68.3601297,9.67973098 68.5306799,9.68885749 68.8042247,9.74817935 L68.8042247,13.1683129 C68.4963484,13.1089911 68.1995468,13.0667812 67.7875684,13.0667812 C66.4486389,13.0667812 65.5338698,13.764954 65.2891193,14.8875062 C65.2437131,15.1145264 65.2215637,15.3963052 65.2215637,15.6883513 L65.2215637,21.5623566 L61.5370157,21.5623566 L61.5624875,13.7752212 Z M54.3517593,19.2271286 C52.826775,19.2271286 51.9906363,17.7281108 51.9906363,15.7556588 C51.9906363,14.0410288 52.6484726,12.2773441 54.3772311,12.2773441 C56.0184995,12.2773441 56.6807658,14.0273391 56.6807658,15.7374059 C56.6807658,17.8239384 55.7892535,19.2271286 54.3750162,19.2271286 L54.3517593,19.2271286 Z M54.3207502,21.8236009 C57.4537789,21.8236009 60.4971026,19.8819507 60.4971026,15.6358743 C60.4971026,12.1278987 58.1049704,9.67973098 54.5079124,9.67973098 C50.7225847,9.67973098 48.2230281,12.0891113 48.2230281,15.8366559 C48.2230281,19.5899047 50.8754154,21.8236009 54.2974934,21.8236009 L54.3207502,21.8236009 Z M33.6819652,21.5623566 L33.6819652,5.56370632 L37.9767285,5.56370632 L41.3046717,11.3955018 C42.2703843,13.0690629 43.2161625,15.0780206 43.9448769,16.8884782 L44.0068951,16.8804926 C43.7809715,14.7642992 43.7112009,12.6104592 43.7112009,10.1942341 L43.7112009,5.56370632 L47.0923026,5.56370632 L47.0923026,21.5623566 L43.231667,21.5623566 L39.7918695,15.4339517 C38.8294793,13.7090545 37.7685244,11.6544646 36.9844366,9.77669942 L36.9035914,9.78354427 C37.0165532,11.9054417 37.0630669,14.174503 37.0630669,16.7880874 L37.0630669,21.5623566 L33.6819652,21.5623566 Z M5.55558501,19.5134707 C4.36062638,17.8650073 3.65406141,15.830952 3.65406141,13.6291982 C3.65406141,8.12937691 8.05292671,3.67225152 13.4817378,3.67225152 C17.5904463,3.67225152 21.111089,6.22765487 22.5773775,9.85541502 C20.9405389,7.13117249 17.9802753,5.31044759 14.6013886,5.31044759 C9.44944462,5.31044759 5.27207304,9.5416936 5.27207304,14.7620176 C5.27207304,17.4737112 6.39836862,19.9184565 8.20464991,21.642213 C10.615609,23.0659377 13.5426486,23.6420442 16.5051271,23.052248 C22.859782,21.788236 26.969598,15.6450007 25.6860419,9.32950382 C24.8454732,5.18724065 20.9538286,1.34843159 17.2294116,0 C22.6083866,0.456322027 26.9363739,5.26937861 27.959675,10.3048922 C29.3130016,16.9569265 24.9827993,23.4309953 18.2881516,24.7588924 C13.2225902,25.7662233 8.2578084,23.5405126 5.55558501,19.5134707 Z M21.3381202,5.35379818 C19.1010335,3.35967092 16.0809666,2.2291331 12.839406,2.44702687 C6.48585864,2.87368797 1.68608969,8.31076492 2.11689498,14.5920376 C2.39929947,18.7114847 5.78261607,22.8514663 9.23681064,24.6254182 C4.47026576,23.5610471 0.372631919,18.3715248 0.0282091818,13.361109 C-0.424745479,6.74443957 4.63084872,1.01645731 11.3221741,0.569261729 C16.3877355,0.228161014 20.9372165,3.01286619 23.0458367,7.25552023 C22.8918986,7.04104888 22.7302082,6.83114075 22.5629805,6.62807745 C24.3592945,8.86519621 25.119018,11.8381342 24.2407953,14.8783797 C22.7844741,19.9173157 17.5970912,22.8697192 12.6533513,21.4699514 C8.9101074,20.4135659 6.38286406,17.1668347 6.00632473,13.4637814 C6.77601541,16.3819608 8.98873773,18.8107347 12.0675005,19.6811691 C16.7609524,21.0079253 21.6847578,18.2061081 23.0679861,13.4227124 C23.9750029,10.2866393 23.0092903,7.28289955 20.9970198,5.07087853 C21.113304,5.16328374 21.2273733,5.25797057 21.3381202,5.35379818 Z" mask="url(#nordicbet-b)"/>
  </g>
</svg>
